<svg width="182" height="39" viewBox="0 0 182 39" fill="none" xmlns="http://www.w3.org/2000/svg">
<path d="M173.503 27.8986V14.8984H177.103V18.5713L176.596 17.5081C176.983 16.5898 177.603 15.8971 178.457 15.43C179.31 14.9467 180.349 14.705 181.574 14.705V18.1847C181.413 18.1686 181.268 18.1605 181.139 18.1605C181.01 18.1444 180.873 18.1363 180.728 18.1363C179.697 18.1363 178.859 18.4344 178.215 19.0304C177.587 19.6103 177.273 20.5205 177.273 21.7609V27.8986H173.503Z" fill="#0A0A0A"/>
<path d="M165.436 28.0919C163.954 28.0919 162.649 27.8019 161.521 27.222C160.41 26.642 159.548 25.8527 158.936 24.8539C158.324 23.839 158.018 22.6872 158.018 21.3985C158.018 20.0936 158.316 18.9418 158.912 17.943C159.524 16.9281 160.353 16.1388 161.401 15.5749C162.448 14.995 163.632 14.705 164.953 14.705C166.225 14.705 167.369 14.9789 168.384 15.5266C169.415 16.0582 170.228 16.8315 170.824 17.8464C171.421 18.8451 171.719 20.0453 171.719 21.4468C171.719 21.5918 171.71 21.7609 171.694 21.9542C171.678 22.1314 171.662 22.3006 171.646 22.4617H161.086V20.2628H169.665L168.215 20.9152C168.215 20.2386 168.078 19.6506 167.804 19.1512C167.53 18.6518 167.152 18.2652 166.668 17.9913C166.185 17.7014 165.621 17.5564 164.977 17.5564C164.332 17.5564 163.761 17.7014 163.261 17.9913C162.778 18.2652 162.399 18.6599 162.125 19.1754C161.852 19.6748 161.715 20.2708 161.715 20.9635V21.5435C161.715 22.2523 161.868 22.8805 162.174 23.4282C162.496 23.9598 162.939 24.3706 163.503 24.6606C164.083 24.9345 164.759 25.0714 165.533 25.0714C166.225 25.0714 166.829 24.9667 167.345 24.7573C167.876 24.5478 168.36 24.2337 168.795 23.8149L170.8 25.9896C170.204 26.6662 169.455 27.1898 168.553 27.5603C167.651 27.9147 166.612 28.0919 165.436 28.0919Z" fill="#0A0A0A"/>
<path d="M147.264 32.7797C146.588 32.7797 145.919 32.6749 145.259 32.4655C144.598 32.2561 144.058 31.9661 143.64 31.5956L145.017 28.9134C145.307 29.1712 145.637 29.3725 146.008 29.5175C146.394 29.6625 146.773 29.735 147.143 29.735C147.675 29.735 148.094 29.6061 148.4 29.3484C148.722 29.1067 149.012 28.6959 149.27 28.116L149.946 26.5212L150.236 26.1104L154.9 14.8983H158.525L152.653 28.6959C152.234 29.743 151.751 30.5646 151.203 31.1607C150.671 31.7567 150.075 32.1756 149.415 32.4172C148.77 32.6588 148.054 32.7797 147.264 32.7797ZM149.487 28.406L143.688 14.8983H147.578L152.073 25.7721L149.487 28.406Z" fill="#0A0A0A"/>
<path d="M139.643 27.8986V25.3614L139.401 24.8056V20.2628C139.401 19.4573 139.152 18.829 138.652 18.378C138.169 17.9269 137.42 17.7014 136.405 17.7014C135.712 17.7014 135.028 17.8141 134.351 18.0397C133.691 18.2491 133.127 18.5391 132.66 18.9096L131.307 16.2757C132.015 15.7763 132.869 15.3897 133.868 15.1158C134.867 14.842 135.882 14.705 136.913 14.705C138.894 14.705 140.432 15.1722 141.528 16.1066C142.623 17.0409 143.171 18.4988 143.171 20.4802V27.8986H139.643ZM135.68 28.0919C134.665 28.0919 133.795 27.9227 133.07 27.5844C132.346 27.23 131.79 26.7548 131.403 26.1588C131.017 25.5627 130.823 24.8942 130.823 24.1532C130.823 23.3799 131.009 22.7033 131.379 22.1234C131.766 21.5435 132.37 21.0924 133.191 20.7702C134.013 20.4319 135.084 20.2628 136.405 20.2628H139.861V22.4617H136.816C135.93 22.4617 135.318 22.6067 134.979 22.8966C134.657 23.1866 134.496 23.5491 134.496 23.984C134.496 24.4673 134.681 24.8539 135.052 25.1439C135.439 25.4177 135.962 25.5547 136.623 25.5547C137.251 25.5547 137.815 25.4097 138.314 25.1197C138.813 24.8136 139.176 24.3706 139.401 23.7907L139.981 25.5305C139.708 26.3682 139.208 27.0045 138.483 27.4395C137.758 27.8744 136.824 28.0919 135.68 28.0919Z" fill="#0A0A0A"/>
<path d="M117.981 27.8985V10.9838H121.896V24.7089H130.378V27.8985H117.981Z" fill="#0A0A0A"/>
<path d="M109.649 28.0919C108.167 28.0919 106.862 27.8019 105.734 27.222C104.623 26.642 103.761 25.8527 103.149 24.8539C102.537 23.839 102.23 22.6872 102.23 21.3985C102.23 20.0936 102.528 18.9418 103.125 17.943C103.737 16.9281 104.566 16.1388 105.613 15.5749C106.661 14.995 107.845 14.705 109.166 14.705C110.438 14.705 111.582 14.9789 112.597 15.5266C113.628 16.0582 114.441 16.8315 115.037 17.8464C115.633 18.8451 115.931 20.0453 115.931 21.4468C115.931 21.5918 115.923 21.7609 115.907 21.9542C115.891 22.1314 115.875 22.3006 115.859 22.4617H105.299V20.2628H113.878L112.428 20.9152C112.428 20.2386 112.291 19.6506 112.017 19.1512C111.743 18.6518 111.364 18.2652 110.881 17.9913C110.398 17.7014 109.834 17.5564 109.19 17.5564C108.545 17.5564 107.973 17.7014 107.474 17.9913C106.991 18.2652 106.612 18.6599 106.338 19.1754C106.064 19.6748 105.928 20.2708 105.928 20.9635V21.5435C105.928 22.2523 106.081 22.8805 106.387 23.4282C106.709 23.9598 107.152 24.3706 107.716 24.6606C108.296 24.9345 108.972 25.0714 109.745 25.0714C110.438 25.0714 111.042 24.9667 111.558 24.7573C112.089 24.5478 112.573 24.2337 113.008 23.8149L115.013 25.9896C114.417 26.6662 113.668 27.1898 112.766 27.5603C111.864 27.9147 110.825 28.0919 109.649 28.0919Z" fill="#0A0A0A"/>
<path d="M93.3614 27.8985L87.9004 14.8983H91.7908L96.3336 26.0862H94.4005L99.1125 14.8983H102.737L97.2518 27.8985H93.3614Z" fill="#0A0A0A"/>
<path d="M83.2911 27.8985V14.8983H87.0607V27.8985H83.2911ZM85.1759 13.086C84.4832 13.086 83.9194 12.8847 83.4845 12.4819C83.0495 12.0792 82.832 11.5798 82.832 10.9838C82.832 10.3877 83.0495 9.88833 83.4845 9.4856C83.9194 9.08287 84.4832 8.8815 85.1759 8.8815C85.8686 8.8815 86.4325 9.07481 86.8674 9.46144C87.3024 9.83195 87.5198 10.3152 87.5198 10.9113C87.5198 11.5395 87.3024 12.0631 86.8674 12.4819C86.4486 12.8847 85.8847 13.086 85.1759 13.086Z" fill="#0A0A0A"/>
<path d="M78.8313 28.0919C77.3009 28.0919 76.1088 27.7052 75.2551 26.932C74.4013 26.1426 73.9744 24.9747 73.9744 23.4282V12.0228H77.7439V23.3799C77.7439 23.9276 77.8889 24.3545 78.1789 24.6606C78.4689 24.9506 78.8635 25.0955 79.3629 25.0955C79.959 25.0955 80.4664 24.9344 80.8853 24.6123L81.9001 27.2703C81.5135 27.5442 81.0463 27.7536 80.4986 27.8986C79.967 28.0274 79.4113 28.0919 78.8313 28.0919ZM71.9688 18.088V15.1883H80.9819V18.088H71.9688Z" fill="#0A0A0A"/>
<path d="M66.0568 28.0919C64.6553 28.0919 63.4068 27.81 62.3114 27.2461C61.216 26.6662 60.3541 25.8688 59.7258 24.8539C59.1137 23.839 58.8076 22.6872 58.8076 21.3985C58.8076 20.0936 59.1137 18.9418 59.7258 17.943C60.3541 16.9281 61.216 16.1388 62.3114 15.5749C63.4068 14.995 64.6553 14.705 66.0568 14.705C67.4261 14.705 68.6182 14.995 69.6331 15.5749C70.648 16.1388 71.397 16.9523 71.8803 18.0155L68.9565 19.5862C68.6182 18.974 68.1913 18.523 67.6758 18.233C67.1764 17.943 66.6287 17.798 66.0326 17.798C65.3883 17.798 64.8083 17.943 64.2928 18.233C63.7773 18.523 63.3666 18.9337 63.0605 19.4653C62.7705 19.997 62.6255 20.6413 62.6255 21.3985C62.6255 22.1556 62.7705 22.8 63.0605 23.3316C63.3666 23.8632 63.7773 24.274 64.2928 24.5639C64.8083 24.8539 65.3883 24.9989 66.0326 24.9989C66.6287 24.9989 67.1764 24.862 67.6758 24.5881C68.1913 24.2981 68.6182 23.839 68.9565 23.2108L71.8803 24.8056C71.397 25.8527 70.648 26.6662 69.6331 27.2461C68.6182 27.81 67.4261 28.0919 66.0568 28.0919Z" fill="#0A0A0A"/>
<path d="M40.1592 27.8985L47.6983 10.9838H51.5646L59.1279 27.8985H55.02L48.834 12.9652H50.3805L44.1704 27.8985H40.1592ZM43.9288 24.274L44.9678 21.3018H53.6668L54.7301 24.274H43.9288Z" fill="#0A0A0A"/>
<path d="M21.3933 3.98875C22.0985 3.77884 22.8483 3.77884 23.5535 3.98876C26.4296 4.84493 29.9268 5.92614 32.5602 6.78112C33.8204 7.1903 34.5452 8.70014 34.5452 10.4295C34.5452 20.4231 32.6374 29.2822 23.0591 34.5301C22.6961 34.729 22.2507 34.729 21.8877 34.5301C12.3094 29.2822 10.4014 20.4231 10.4014 10.4295C10.4014 8.70013 11.1264 7.19029 12.3867 6.78112C15.02 5.92614 18.5173 4.84493 21.3933 3.98875Z" fill="url(#paint0_linear_22_1174)"/>
<path d="M12.0039 28.3829C12.4527 29.2076 12.1778 30.1551 11.4643 30.5527C10.7508 30.9503 9.84811 30.7419 9.39804 29.976C6.27821 24.5611 4.96507 18.1092 5.07248 11.8887C5.17093 10.0526 7.88799 10.0424 7.97366 11.9041C8.01969 17.8126 9.05281 23.2313 12.0051 28.3842L12.0039 28.3829Z" fill="url(#paint1_linear_22_1174)"/>
<path d="M2.35069 27.4073C0.853429 23.2991 -0.0722892 19.8072 0.00442785 15.5136C0.0108209 15.1799 0.118225 14.85 0.336868 14.5981C1.1603 13.6481 2.99639 14.1404 2.99639 15.685C3.15366 19.43 3.79553 22.8695 5.16748 26.3614C5.7646 28.0748 3.07694 29.2063 2.35069 27.4073Z" fill="url(#paint2_linear_22_1174)"/>
<path d="M20.7541 24.165C20.319 24.165 19.9055 23.9753 19.6223 23.6459L16.0764 19.7829C15.5383 19.158 15.6088 18.2146 16.235 17.6765C16.8598 17.1384 17.8032 17.2102 18.3414 17.8351L20.7554 20.3806L27.1504 13.396C27.6885 12.7711 28.6306 12.6993 29.2568 13.2374C29.8817 13.7755 29.9535 14.7175 29.4154 15.3437L21.8886 23.6459C21.6053 23.9753 21.1919 24.1664 20.7568 24.1664L20.7541 24.165Z" fill="white"/>
<defs>
<linearGradient id="paint0_linear_22_1174" x1="22.4732" y1="3.66925" x2="22.4732" y2="34.8415" gradientUnits="userSpaceOnUse">
<stop offset="0.480769" stop-color="#10B981"/>
<stop offset="1" stop-color="#008A5C"/>
</linearGradient>
<linearGradient id="paint1_linear_22_1174" x1="8.6442" y1="10.5097" x2="8.6442" y2="30.7501" gradientUnits="userSpaceOnUse">
<stop offset="0.480769" stop-color="#10B981"/>
<stop offset="1" stop-color="#008A5C"/>
</linearGradient>
<linearGradient id="paint2_linear_22_1174" x1="2.62667" y1="14.1139" x2="2.62667" y2="28.3204" gradientUnits="userSpaceOnUse">
<stop offset="0.480769" stop-color="#10B981"/>
<stop offset="1" stop-color="#008A5C"/>
</linearGradient>
</defs>
</svg>
