<svg width="39" height="39" viewBox="0 0 39 39" fill="none" xmlns="http://www.w3.org/2000/svg">
<path d="M13.9863 28.3829C14.4351 29.2076 14.1602 30.1551 13.4467 30.5527C12.7332 30.9503 11.8305 30.7419 11.3805 29.976C8.26063 24.5611 6.94749 18.1092 7.0549 11.8887C7.15335 10.0526 9.87041 10.0424 9.95608 11.9041C10.0021 17.8126 11.0352 23.2313 13.9876 28.3842L13.9863 28.3829Z" fill="#a7aaad"/>
<path d="M4.33311 27.4073C2.83585 23.2991 1.91013 19.8072 1.98685 15.5136C1.99324 15.1799 2.10065 14.85 2.31929 14.5981C3.14272 13.6481 4.97881 14.1404 4.97881 15.685C5.13608 19.43 5.77795 22.8695 7.14991 26.3614C7.74702 28.0748 5.05937 29.2063 4.33311 27.4073Z" fill="#a7aaad"/>
<path d="M23.376 3.9884C24.081 3.77858 24.8311 3.77852 25.5361 3.9884C28.4122 4.84458 31.9097 5.9264 34.543 6.78137C35.8029 7.19075 36.5273 8.70062 36.5273 10.4298C36.5273 20.4232 34.6193 29.2826 25.041 34.5304C24.6782 34.729 24.2329 34.7291 23.8701 34.5304C14.2918 29.2826 12.3838 20.4233 12.3838 10.4298C12.3838 8.70042 13.1089 7.19055 14.3691 6.78137C17.0025 5.92639 20.4999 4.84458 23.376 3.9884ZM31.2393 13.2374C30.6131 12.6994 29.6709 12.7709 29.1328 13.3956L22.7383 20.381L20.3242 17.8351C19.7861 17.2102 18.8426 17.1388 18.2178 17.6769C17.5916 18.215 17.5205 19.1585 18.0586 19.7833L21.6045 23.6456C21.8877 23.975 22.3013 24.1651 22.7363 24.1652L22.7393 24.1661C23.1743 24.1661 23.5878 23.975 23.8711 23.6456L31.3975 15.3439C31.9356 14.7177 31.8641 13.7755 31.2393 13.2374Z" fill="#a7aaad"/>
</svg>
